<?xml version="1.0" standalone="no"?>
<!DOCTYPE svg PUBLIC "-//W3C//DTD SVG 20010904//EN"
 "http://www.w3.org/TR/2001/REC-SVG-20010904/DTD/svg10.dtd">
<svg version="1.0" xmlns="http://www.w3.org/2000/svg"
 width="700.000000pt" height="700.000000pt" viewBox="0 0 700.000000 700.000000"
 preserveAspectRatio="xMidYMid meet">
<metadata>
Created by potrace 1.11, written by Peter Selinger 2001-2013
</metadata>
<g transform="translate(0.000000,700.000000) scale(0.100000,-0.100000)"
fill="#000000" stroke="none">
<path d="M3724 6843 c-6 -5 -10 -21 -10 -38 1 -29 0 -30 -46 -31 -30 0 -54 -7
-66 -17 -11 -10 -35 -17 -61 -17 -41 0 -43 -1 -66 -52 -14 -29 -25 -59 -25
-65 0 -17 -27 -17 -37 0 -18 31 -54 27 -89 -9 -19 -19 -41 -34 -49 -34 -20 0
-19 27 1 38 23 13 11 62 -13 57 -10 -2 -24 -4 -30 -4 -7 -1 -15 -12 -19 -26
-3 -14 -15 -30 -25 -36 -20 -10 -27 -63 -9 -74 5 -3 -2 -16 -17 -29 l-26 -23
19 -34 c10 -19 22 -36 26 -39 10 -8 -6 -63 -19 -67 -16 -6 -36 35 -30 58 7 25
-17 42 -58 41 -18 -1 -39 5 -45 13 -7 8 -18 15 -24 15 -15 0 -66 -75 -66 -96
0 -8 -8 -14 -19 -14 -27 0 -41 -22 -48 -77 -4 -41 -2 -51 11 -56 10 -4 24 1
36 13 26 26 30 25 30 -5 0 -29 -24 -44 -62 -38 -14 2 -29 -1 -33 -7 -3 -5 -14
-10 -24 -10 -16 0 -17 5 -8 45 6 25 8 47 6 49 -14 14 -61 13 -79 -2 -20 -18
-30 -68 -16 -90 4 -7 -2 -27 -13 -46 -12 -18 -21 -42 -21 -54 0 -11 -8 -22
-18 -24 -21 -6 -29 -58 -8 -58 7 0 16 -9 19 -20 4 -16 0 -20 -22 -20 -16 0
-42 -5 -60 -11 -32 -11 -32 -12 -26 -64 5 -45 2 -57 -17 -81 -13 -16 -38 -51
-57 -79 -19 -27 -44 -61 -56 -75 -32 -36 -38 -68 -14 -80 10 -6 19 -8 19 -5 0
3 11 -2 24 -10 23 -15 23 -16 8 -59 -15 -41 -15 -45 3 -72 10 -16 20 -37 20
-47 2 -24 22 -37 60 -37 37 0 19 -15 -37 -30 -21 -6 -39 -18 -43 -29 -5 -18
-7 -18 -32 5 -29 27 -89 42 -105 26 -7 -7 -6 -21 3 -45 12 -33 11 -38 -12 -62
-32 -35 -41 -43 -62 -58 -9 -7 -19 -22 -22 -34 -4 -23 -2 -24 59 -27 20 -1 36
-26 18 -26 -6 0 -13 -14 -17 -31 -6 -25 -2 -36 18 -57 13 -15 30 -38 37 -51
11 -22 10 -27 -15 -47 -34 -27 -30 -55 9 -65 15 -4 37 -16 48 -26 11 -10 22
-17 24 -15 15 9 22 -1 15 -20 -5 -14 -17 -23 -30 -24 -12 -1 -27 -6 -33 -12
-15 -15 6 -47 33 -47 31 0 62 -57 56 -103 -3 -19 1 -56 9 -81 7 -25 14 -58 14
-72 0 -36 23 -43 55 -17 20 15 29 18 38 9 6 -6 28 -11 48 -11 40 0 58 -15 40
-33 -31 -31 9 -78 82 -98 38 -10 42 -9 60 15 27 37 37 32 37 -16 1 -76 68
-130 110 -88 23 23 41 18 89 -22 21 -18 42 -28 57 -26 14 2 29 -4 37 -16 9
-12 20 -17 31 -13 20 8 21 47 1 47 -8 0 -29 14 -46 31 -25 25 -30 35 -22 48
14 23 47 20 51 -4 9 -48 49 -59 103 -26 29 18 35 18 81 4 65 -19 90 -12 111
32 11 24 24 35 39 36 55 2 73 7 83 23 29 49 31 51 59 38 44 -20 82 -15 100 13
9 14 23 25 32 25 8 0 17 6 20 14 3 8 18 18 34 21 32 7 45 38 24 59 -17 17 -18
40 -3 64 8 13 21 16 47 14 32 -3 43 3 80 37 24 23 47 41 52 41 4 0 4 15 0 34
-6 29 -4 38 16 57 25 23 31 58 14 75 -7 7 -2 18 15 34 31 29 31 43 4 69 l-22
20 56 27 c31 15 58 36 60 46 6 21 -27 48 -59 48 -15 0 -28 10 -38 32 -20 40
-21 39 12 37 41 -3 90 10 96 27 3 8 -4 24 -15 35 -12 12 -19 30 -17 44 2 14
-6 33 -21 49 -16 17 -21 30 -16 43 5 10 7 25 6 34 -1 9 10 26 24 37 14 11 25
27 25 36 0 8 9 20 20 26 15 8 19 20 18 53 -1 23 2 53 7 66 6 19 5 22 -10 20
-10 -2 -18 -8 -18 -14 1 -5 -3 -18 -9 -28 -8 -17 -12 -17 -26 -4 -9 8 -23 12
-29 10 -8 -3 -13 5 -13 21 0 17 6 26 15 26 8 0 23 9 32 20 10 11 21 20 25 20
5 0 17 -9 28 -20 50 -50 139 2 92 53 -9 11 -15 30 -14 44 2 13 -1 30 -8 37 -8
11 -7 18 5 30 9 9 21 16 26 16 15 0 61 81 56 101 -3 10 2 27 9 38 8 11 14 36
12 55 -1 22 4 42 15 54 22 25 22 68 -2 84 -22 16 -35 67 -21 88 8 13 10 12 11
-5 1 -11 1 -26 0 -32 -4 -26 27 -12 39 18 10 24 10 35 0 54 -11 20 -10 28 10
60 20 33 22 42 12 69 -7 19 -9 44 -4 61 9 35 9 46 0 61 -4 6 -9 23 -12 39 -6
34 -13 40 -47 48 -22 6 -26 2 -35 -26 -8 -29 -12 -32 -44 -29 -19 2 -36 5 -38
7 -1 1 -5 21 -7 45 -7 68 -13 77 -51 85 -43 8 -75 -14 -67 -46 3 -10 0 -19 -6
-19 -6 0 -11 6 -11 13 0 8 -12 24 -26 38 -23 21 -25 29 -20 72 6 41 3 52 -20
83 -39 51 -60 59 -92 37 -15 -10 -40 -23 -55 -30 -26 -11 -27 -16 -22 -55 6
-46 -1 -65 -25 -68 -37 -6 -52 2 -61 30 -6 17 -15 30 -20 30 -5 0 -8 22 -7 50
1 27 0 51 -2 54 -10 10 -56 16 -66 9z"/>
<path d="M1623 5953 c-7 -3 -13 -15 -13 -27 0 -46 -52 -62 -83 -26 -33 39 -87
22 -87 -28 0 -8 -7 -23 -16 -33 -15 -16 -14 -20 5 -40 12 -13 21 -29 21 -36 0
-28 -30 -11 -64 37 -20 28 -44 50 -53 51 -10 0 -27 2 -37 4 -78 15 -106 7
-106 -28 0 -12 -4 -17 -8 -12 -4 6 -20 10 -37 10 -22 -1 -31 -6 -34 -20 -5
-29 -40 -75 -56 -75 -8 0 -19 9 -25 20 -9 17 -14 18 -33 9 -40 -21 -67 -52
-78 -91 -8 -32 -15 -40 -40 -45 -19 -3 -35 -15 -41 -29 -8 -17 -19 -24 -39
-24 -19 0 -34 -8 -45 -25 -9 -14 -20 -23 -24 -20 -5 3 -13 -1 -17 -10 -8 -14
-36 -23 -78 -24 -13 -1 -25 -12 -32 -31 -7 -19 -18 -30 -31 -30 -19 0 -58 -37
-95 -90 -13 -19 -27 -24 -64 -26 -27 -1 -60 -7 -74 -13 -25 -9 -26 -13 -23
-56 5 -45 4 -45 -21 -39 -37 9 -65 -19 -63 -63 1 -28 5 -33 22 -31 16 2 21 -3
22 -22 1 -40 -13 -59 -41 -56 -35 4 -49 -16 -40 -60 6 -37 6 -37 -24 -31 -17
4 -42 2 -55 -4 -24 -11 -23 -9 -42 -164 -4 -29 -13 -47 -37 -67 l-32 -26 18
-49 c20 -57 22 -88 4 -104 -10 -10 -11 -28 -5 -73 5 -34 13 -62 18 -64 16 -6
12 -34 -7 -54 -12 -14 -17 -34 -16 -68 1 -27 -2 -52 -7 -55 -17 -10 -11 -61 9
-83 23 -27 61 -28 94 -2 33 26 51 27 38 2 -7 -14 -5 -29 9 -55 27 -49 19 -63
-30 -59 -39 4 -40 3 -40 -26 0 -43 9 -62 31 -62 10 0 28 -9 39 -20 16 -16 24
-18 44 -9 13 6 29 22 36 34 16 30 42 22 31 -8 -5 -12 -4 -33 1 -47 5 -13 7
-34 3 -47 -7 -28 27 -53 73 -53 41 0 39 -17 -6 -45 -42 -27 -45 -40 -16 -74
21 -25 30 -29 62 -25 20 3 52 16 71 29 26 18 39 22 53 14 28 -15 22 -27 -21
-39 -45 -12 -54 -27 -37 -61 10 -20 19 -24 56 -24 41 0 44 -2 52 -32 5 -20 15
-33 26 -34 9 -1 26 -2 37 -3 11 -1 35 -5 53 -10 28 -7 38 -4 58 15 18 17 35
22 60 21 20 -2 42 2 50 9 8 7 25 8 46 3 39 -9 60 -6 70 9 13 20 9 55 -7 61
-23 8 -18 21 13 36 48 22 93 29 121 18 36 -16 42 -16 78 -1 18 7 39 10 47 7
17 -6 56 29 56 51 0 15 66 65 86 65 6 0 14 -13 18 -30 4 -25 10 -30 34 -30 20
0 33 7 42 24 22 42 60 45 60 6 0 -19 14 -33 38 -36 11 -2 45 41 54 68 2 4 16
9 32 10 17 2 35 12 43 25 12 17 25 23 54 23 40 0 66 26 56 54 -3 8 8 23 24 35
16 12 29 28 29 35 0 8 15 23 34 34 34 20 33 18 53 138 4 25 0 34 -21 48 -26
16 -27 16 -51 -11 -23 -27 -24 -27 -25 -6 0 21 42 63 63 63 5 0 15 7 21 15 6
8 27 17 46 20 34 6 50 19 50 42 0 13 -24 39 -42 46 -10 4 -10 7 0 18 13 14 17
16 52 18 13 1 20 8 20 20 0 11 9 22 20 26 13 4 25 24 36 61 15 52 15 55 -4 79
-32 40 -22 61 25 57 53 -4 72 18 65 76 -3 28 -10 46 -21 50 -9 3 -19 10 -23
16 -12 18 -9 63 5 74 8 7 12 39 11 101 -1 81 1 91 17 91 35 0 36 73 1 82 -9 3
-24 17 -31 32 -14 26 -14 28 27 65 45 42 49 55 27 85 -8 11 -15 35 -15 54 0
31 2 33 30 28 26 -4 30 -1 30 18 0 41 -31 115 -51 121 -11 4 -17 10 -14 15 13
21 15 79 3 86 -29 18 -46 13 -58 -17 -7 -16 -18 -28 -24 -26 -17 6 -19 42 -3
56 12 9 13 51 2 51 -1 0 -16 -5 -34 -11 -27 -9 -35 -8 -51 6 -17 16 -20 15
-39 -4 -26 -26 -46 -27 -47 -3 -1 9 -4 29 -8 43 -7 23 -3 30 24 45 44 26 38
57 -14 65 -21 3 -41 12 -45 18 -6 9 -16 7 -39 -6 -24 -13 -32 -25 -32 -46 0
-16 6 -30 15 -32 8 -3 21 -7 29 -9 11 -4 11 -11 2 -40 -10 -34 -11 -34 -28
-16 -9 10 -27 25 -39 33 -13 10 -22 29 -24 51 -3 31 0 38 31 56 37 23 42 40
19 63 -11 11 -29 14 -69 10 -52 -5 -56 -4 -67 20 -12 26 -34 37 -56 30z"/>
<path d="M5979 5846 c-10 -20 -15 -22 -50 -16 -26 5 -39 4 -39 -4 0 -6 -9 -22
-19 -35 -15 -20 -29 -25 -77 -27 -99 -6 -108 -5 -125 18 -21 27 -43 15 -34
-19 8 -33 -36 -83 -66 -76 -27 7 -43 39 -24 47 20 7 19 28 -4 48 -10 8 -21 22
-23 29 -2 7 -11 10 -20 7 -12 -5 -15 -19 -13 -57 l3 -51 -38 0 c-27 0 -48 -8
-69 -26 -32 -27 -61 -26 -61 0 0 36 -74 45 -113 14 -28 -23 -30 -58 -3 -58 6
0 26 -9 44 -20 27 -16 31 -24 22 -34 -9 -12 -16 -12 -42 1 -39 20 -85 19 -107
-1 -28 -25 -60 -20 -72 11 -6 16 -17 36 -26 45 -14 16 -18 16 -44 2 -26 -13
-34 -28 -30 -61 2 -16 -13 -24 -88 -43 -60 -15 -66 -19 -75 -48 -10 -35 -20
-40 -34 -16 -5 10 -19 14 -37 12 -23 -2 -30 -11 -47 -56 -18 -48 -21 -52 -46
-46 -15 4 -29 8 -31 10 -2 2 -12 -1 -22 -7 -20 -10 -27 -49 -9 -49 6 0 10 -7
10 -15 0 -11 -11 -15 -40 -15 -44 0 -71 -29 -51 -54 8 -10 7 -24 -5 -52 -20
-48 -16 -44 -49 -50 -15 -3 -43 -11 -61 -19 -45 -19 -46 -55 -4 -85 17 -12 30
-27 30 -35 0 -22 28 -44 50 -38 17 4 20 0 20 -23 0 -28 -2 -29 -50 -31 -28 -1
-50 1 -51 5 -1 4 -2 20 -3 35 -4 37 -19 51 -46 42 -20 -6 -21 -12 -16 -49 6
-41 5 -43 -54 -100 -33 -32 -60 -61 -60 -64 0 -15 16 -30 39 -37 22 -7 21 -8
-17 -25 -43 -20 -57 -43 -46 -84 5 -20 -1 -34 -29 -66 -38 -45 -52 -89 -32
-96 7 -3 15 -14 18 -25 4 -14 -8 -28 -44 -55 -27 -20 -49 -39 -50 -42 0 -4 -2
-15 -4 -26 -2 -11 3 -20 16 -23 25 -7 24 -21 -3 -50 -15 -16 -24 -42 -29 -85
-7 -58 -5 -66 20 -103 l28 -41 -19 -34 c-10 -19 -18 -42 -18 -51 0 -20 23 -41
42 -38 29 4 35 -3 35 -38 1 -102 3 -107 36 -130 18 -13 44 -28 60 -34 23 -9
27 -17 27 -49 0 -33 4 -39 31 -51 30 -12 33 -11 55 16 l22 28 15 -35 c18 -43
32 -52 74 -50 36 3 42 -8 17 -32 -29 -30 -13 -50 43 -57 28 -4 55 -9 61 -13 5
-3 15 1 22 9 20 25 53 18 72 -15 23 -40 66 -51 87 -20 46 66 87 85 118 54 11
-11 26 -14 49 -10 24 5 36 2 46 -11 7 -10 20 -19 28 -21 8 -2 22 -11 30 -21
17 -20 71 -41 106 -41 13 0 33 9 45 21 11 11 28 18 37 15 61 -18 72 -16 95 25
18 32 27 39 54 39 31 0 86 29 127 66 13 12 34 17 64 15 24 0 51 4 58 10 22 18
17 55 -8 67 -22 11 -22 12 7 11 49 -2 53 0 90 32 30 27 35 37 33 68 -3 35 -2
36 34 37 52 1 94 21 95 44 3 34 -65 43 -98 14 -19 -17 -51 -8 -47 14 2 10 17
16 42 19 46 3 84 26 95 56 11 30 5 43 -30 57 -32 14 -37 33 -14 57 8 8 13 19
10 24 -4 5 -1 9 4 9 6 0 11 -6 11 -14 0 -26 32 -27 76 -1 24 14 44 29 45 33 0
4 2 15 4 24 5 24 -27 49 -67 51 -35 2 -35 2 -26 35 5 18 8 42 6 54 -2 16 3 23
22 28 17 4 28 16 36 38 5 18 17 39 25 47 13 14 15 11 16 -19 1 -22 -6 -41 -17
-51 -21 -19 -16 -51 9 -58 18 -4 55 17 57 33 1 6 2 15 3 20 2 18 31 11 39 -10
7 -19 8 -19 42 -2 30 14 37 25 48 71 9 37 10 61 4 76 -7 15 -5 31 9 60 10 21
18 39 16 40 -1 0 -15 6 -30 13 -28 12 -29 32 -1 32 9 0 14 11 14 34 0 21 6 36
15 40 13 4 12 12 -5 50 l-19 45 22 7 c12 4 28 15 35 25 8 12 25 19 46 19 17 0
37 5 43 11 20 20 63 1 75 -31 5 -17 16 -30 24 -30 14 0 15 7 19 98 2 25 11 41
38 63 19 16 34 35 33 41 -8 39 -19 48 -55 46 -57 -2 -65 8 -41 48 19 30 20 40
11 86 -22 113 -22 116 12 155 27 31 32 44 31 87 0 28 -10 72 -22 99 l-21 47
-56 0 c-49 0 -57 3 -67 25 -6 13 -25 29 -43 35 -24 8 -39 24 -60 65 -20 40
-33 55 -48 55 -11 0 -18 -3 -14 -6 13 -13 -15 -62 -39 -68 -19 -5 -32 0 -55
23 -26 26 -29 35 -24 65 6 29 3 36 -15 46 -25 13 -22 19 13 26 18 3 34 -3 53
-21 32 -30 77 -31 82 -2 4 22 -19 50 -65 77 l-34 20 -10 -24z"/>
<path d="M3361 3991 c-9 -6 -14 -25 -13 -54 2 -33 -2 -46 -14 -51 -8 -3 -13
-9 -10 -14 9 -15 -9 -30 -39 -34 -28 -3 -30 -1 -33 37 -4 45 -14 59 -45 62
-12 1 -37 5 -55 9 -26 5 -40 2 -62 -15 -36 -26 -56 -27 -70 -1 -11 21 -59 27
-107 14 -26 -7 -40 -42 -42 -101 -1 -12 -15 -35 -33 -52 l-32 -30 -24 24 c-26
26 -39 26 -96 -1 l-38 -19 -19 25 c-34 45 -40 50 -52 50 -7 0 -20 -12 -30 -26
-15 -21 -16 -28 -6 -40 11 -13 10 -18 -6 -27 -29 -17 -43 -17 -56 -1 -17 21
-38 17 -76 -12 -26 -20 -42 -25 -63 -20 -16 3 -32 1 -35 -4 -3 -6 -14 -10 -23
-10 -13 0 -12 3 6 16 12 8 22 24 22 35 0 18 -15 22 -67 19 -5 -1 -7 -20 -5
-43 2 -22 0 -38 -4 -34 -15 14 -44 -14 -44 -44 0 -37 -27 -50 -47 -23 -10 14
-26 19 -65 19 -51 0 -51 0 -63 -40 -18 -59 -55 -116 -73 -113 -9 2 -19 16 -23
32 -10 35 -27 48 -50 36 -11 -6 -15 -18 -12 -35 5 -22 2 -25 -24 -25 -16 0
-36 -9 -46 -20 -20 -24 -63 -26 -112 -6 -33 14 -36 14 -47 -7 l-12 -22 -6 25
c-6 27 -44 40 -63 21 -8 -8 -16 -6 -28 5 -10 9 -38 19 -61 21 -58 7 -83 -19
-70 -68 6 -26 14 -34 32 -34 27 0 38 -20 16 -28 -9 -4 -22 1 -31 9 -24 24
-109 1 -152 -41 -23 -22 -40 -31 -53 -28 -11 3 -17 9 -14 15 9 15 -16 37 -34
30 -9 -3 -31 -20 -48 -38 -19 -18 -48 -34 -69 -38 -55 -11 -78 -24 -97 -56
-19 -33 -15 -40 21 -40 28 0 19 -14 -16 -24 -16 -5 -23 -2 -27 12 -4 11 -14
19 -24 18 -10 -1 -17 6 -17 19 0 28 -13 45 -35 45 -26 0 -73 -86 -65 -119 6
-25 -7 -41 -36 -41 -11 0 -16 8 -15 28 1 23 -3 27 -28 28 -29 1 -71 -30 -61
-45 2 -5 -9 -14 -25 -21 -17 -7 -34 -19 -38 -26 -4 -8 -16 -11 -30 -7 -36 9
-26 30 20 38 29 6 40 18 43 49 3 27 -1 29 -45 27 -43 -3 -76 -21 -94 -51 -9
-17 -20 -30 -24 -31 -4 0 -17 -2 -30 -3 -31 -4 -39 -14 -50 -63 -11 -49 -1
-70 38 -75 24 -4 23 -5 -12 -20 -20 -9 -39 -26 -43 -37 -5 -16 -15 -21 -39
-21 -35 0 -66 -25 -66 -52 0 -10 -12 -19 -30 -23 -37 -8 -47 -27 -45 -80 2
-22 3 -55 4 -72 1 -27 7 -36 41 -53 23 -12 43 -27 46 -34 2 -6 -23 -40 -57
-73 -51 -52 -60 -65 -54 -85 13 -39 35 -47 60 -22 14 14 20 15 41 3 20 -10 24
-19 22 -43 -2 -22 -8 -30 -18 -27 -48 12 -62 6 -78 -33 -12 -30 -13 -43 -4
-57 17 -27 15 -69 -3 -69 -8 0 -15 5 -15 10 0 6 -7 10 -15 10 -29 0 -14 -30
25 -50 22 -11 51 -38 65 -60 14 -22 32 -40 40 -40 24 0 33 -29 22 -70 -10 -34
-8 -41 16 -70 15 -17 27 -39 28 -48 0 -9 2 -50 4 -89 2 -72 3 -73 50 -118 28
-26 58 -45 71 -45 26 0 66 -58 66 -95 0 -17 11 -31 34 -44 18 -11 40 -31 50
-46 14 -22 15 -29 4 -50 -15 -28 -4 -48 13 -25 18 23 32 21 58 -6 18 -19 20
-27 10 -37 -9 -9 -14 -9 -21 2 -11 19 -36 22 -49 8 -10 -13 11 -112 22 -101 4
4 24 8 44 9 21 1 46 6 57 10 14 6 23 2 37 -16 25 -32 24 -35 -11 -48 -17 -6
-34 -21 -40 -35 -5 -15 -14 -26 -20 -26 -5 0 -10 -9 -10 -20 0 -26 34 -27 52
-2 7 10 30 31 52 47 34 26 39 27 47 12 20 -34 61 -77 76 -77 11 0 14 -8 11
-30 -3 -17 -1 -33 4 -36 4 -3 8 -15 8 -27 1 -12 6 -32 13 -44 12 -21 14 -22
42 -7 16 8 33 21 37 27 5 8 12 9 21 2 8 -5 25 -18 39 -28 26 -18 78 -25 113
-14 18 6 20 3 19 -21 -2 -39 5 -51 36 -67 17 -9 31 -26 34 -43 6 -25 10 -27
47 -24 25 3 56 -2 79 -13 36 -16 39 -16 64 0 25 17 26 16 26 -2 0 -10 9 -26
20 -36 11 -9 20 -28 20 -41 0 -13 7 -29 16 -37 9 -7 14 -22 11 -36 -4 -22 -2
-23 33 -18 27 4 41 1 51 -11 8 -10 29 -23 46 -31 23 -9 40 -28 58 -64 25 -49
27 -50 58 -42 18 4 50 7 72 6 29 -1 43 4 53 18 18 26 52 25 52 -1 0 -27 43
-44 70 -28 16 10 22 9 33 -6 8 -11 31 -20 60 -23 43 -5 47 -8 47 -33 0 -24 7
-31 43 -44 23 -9 65 -22 92 -29 33 -8 49 -18 47 -26 -4 -19 68 -91 91 -91 10
0 30 9 44 20 32 25 67 25 101 2 15 -10 33 -17 40 -16 6 1 17 2 22 3 6 0 10 21
10 46 0 54 16 59 48 16 22 -31 25 -31 97 -14 38 8 76 4 94 -10 16 -14 157 -10
186 6 11 5 36 9 56 9 50 -2 67 19 50 61 -23 58 -24 64 -2 70 11 2 28 -1 38 -9
29 -21 43 -17 43 15 0 20 -6 30 -20 34 -26 7 -26 39 0 55 11 6 28 29 37 50 26
54 118 96 147 67 9 -9 20 -14 25 -11 4 3 16 -3 26 -14 25 -27 32 -25 40 10 5
21 13 30 26 30 10 0 22 1 26 3 14 4 12 -57 -2 -73 -12 -14 -12 -20 0 -43 15
-29 13 -31 -27 -41 -21 -5 -30 -2 -38 13 -19 37 -41 51 -81 51 -24 0 -38 -4
-34 -10 6 -9 -14 -31 -60 -69 -17 -14 -17 -15 1 -28 30 -22 28 -106 -3 -133
-34 -29 -30 -56 12 -70 40 -13 70 -2 80 30 10 31 37 22 49 -17 9 -27 35 -37
70 -24 21 9 26 17 26 45 0 64 24 86 52 48 23 -32 45 -33 84 -1 20 16 42 29 49
29 7 0 18 7 25 15 16 19 44 19 60 0 16 -19 67 -15 80 5 4 7 6 28 3 47 -5 30
-3 33 20 33 16 0 28 -7 32 -19 8 -25 33 -30 73 -14 27 11 32 18 32 47 0 28 -5
35 -25 40 -33 8 -52 44 -29 53 11 4 23 -1 35 -15 25 -32 62 -28 93 9 24 28 25
32 11 52 -13 19 -13 23 4 42 23 25 36 85 18 86 -6 1 -15 1 -19 0 -5 0 -8 4 -8
10 0 7 11 8 33 3 45 -10 67 -7 121 15 32 14 46 26 46 39 0 11 9 30 19 44 11
13 19 31 18 39 -4 22 -18 40 -27 34 -5 -3 -16 2 -25 11 -13 14 -14 19 -3 25 7
5 17 4 22 -1 13 -13 63 -13 71 0 4 6 2 17 -5 25 -16 19 -2 103 21 133 20 27
16 48 -12 57 -24 8 -24 6 6 90 18 52 21 71 12 77 -23 14 -44 8 -76 -23 -18
-17 -34 -29 -36 -27 -2 2 -6 16 -9 32 -3 16 -10 34 -16 40 -16 16 -12 41 9 60
10 10 21 34 24 54 3 20 11 56 18 80 11 37 11 44 -3 58 -14 14 -18 14 -46 0
-17 -9 -40 -16 -52 -16 -21 0 -21 2 -24 75 -2 22 -3 46 -4 53 -3 16 -62 16
-66 0 -31 -112 -31 -112 -66 -121 -19 -5 -39 -13 -45 -18 -29 -29 -51 18 -30
67 11 26 13 52 9 85 -6 47 -6 48 19 46 14 -1 35 -14 47 -30 17 -21 27 -26 43
-21 37 12 46 33 33 78 -12 40 -13 41 -53 38 l-41 -3 0 37 c0 25 -6 42 -18 51
-15 11 -21 10 -41 -9 -16 -15 -20 -25 -13 -32 14 -14 12 -88 -3 -106 -7 -8
-25 -21 -40 -28 l-28 -12 6 42 c4 26 16 51 31 65 20 18 22 26 14 47 -7 18 -5
28 7 37 10 9 13 23 10 46 l-6 33 29 -17 c37 -22 60 -5 60 44 0 20 9 46 20 60
15 19 17 30 9 44 -5 10 -14 19 -19 19 -5 0 -9 19 -8 43 2 58 -26 113 -64 126
-38 14 -34 14 -52 -5 -9 -8 -16 -30 -16 -47 -1 -22 -8 -38 -25 -50 -24 -17
-25 -17 -25 1 0 10 -5 23 -11 29 -7 7 -1 20 20 44 17 18 31 36 31 39 0 3 -13
12 -29 22 -20 11 -34 30 -42 58 -12 40 -12 43 12 61 29 22 67 25 75 4 6 -16
31 -19 58 -9 23 9 20 46 -5 67 -16 14 -18 21 -9 32 13 15 5 55 -11 55 -5 0
-14 11 -19 25 -5 14 -22 33 -37 42 -32 21 -41 54 -18 73 24 20 18 46 -17 74
l-33 26 45 -2 45 -3 0 40 c0 33 -4 41 -22 43 -12 2 -36 -4 -53 -13 -37 -19
-50 -13 -32 16 7 11 10 24 7 29 -11 18 17 22 35 5 27 -24 70 -13 70 18 0 12
-7 33 -16 46 -16 23 -34 24 -77 6 -13 -6 -16 -4 -11 9 3 9 12 16 18 16 7 0 23
11 35 24 l23 24 -20 29 c-23 31 -25 39 -23 101 1 30 5 42 16 42 15 0 19 -18
15 -71 -1 -19 5 -28 19 -32 28 -7 52 27 44 63 -3 15 0 31 6 34 14 9 14 53 0
61 -7 5 -5 14 5 30 19 29 4 52 -36 57 -26 3 -27 5 -15 28 11 21 20 25 59 25
50 0 58 4 62 31 3 17 -49 74 -66 74 -5 0 -8 11 -8 25 0 18 -7 28 -25 35 -15 6
-27 20 -31 37 -9 39 -23 53 -50 53 -28 0 -38 -28 -26 -73 8 -28 6 -36 -9 -45
-37 -23 -87 -6 -60 21 6 6 11 33 11 60 0 30 6 54 15 63 23 24 19 51 -9 56 -33
7 -44 -2 -42 -32 2 -37 -28 -37 -70 -1 -38 34 -88 42 -98 15 -3 -9 -3 -21 1
-27 14 -23 13 -47 -2 -47 -8 0 -18 0 -22 -1 -4 0 -15 29 -23 65 l-16 65 24 25
c28 27 24 56 -7 56 -23 0 -51 -25 -51 -46 0 -20 -24 -17 -44 5 -16 17 -15 19
7 34 40 26 27 78 -19 75 -13 -1 -27 -10 -30 -20 -6 -19 -44 -25 -44 -7 0 6 -7
26 -16 45 -16 34 -36 42 -63 25z"/>
<path d="M6313 3648 c-4 -7 -7 -22 -8 -33 0 -14 -8 -21 -28 -23 -24 -3 -44
-23 -45 -45 -1 -4 -4 -28 -8 -53 -6 -40 -8 -43 -23 -31 -17 14 -26 15 -55 2
-13 -6 -23 -3 -31 9 -10 13 -33 18 -93 22 -92 5 -101 -1 -95 -69 3 -32 1 -38
-14 -35 -14 3 -17 12 -14 46 3 44 -11 72 -35 72 -7 0 -30 -16 -50 -36 -31 -31
-35 -42 -31 -69 5 -32 5 -33 -30 -29 -19 2 -41 8 -49 15 -8 6 -27 9 -44 6 -32
-7 -52 10 -29 24 16 10 19 27 7 51 -11 23 -35 13 -42 -18 -5 -17 -13 -24 -31
-24 -21 0 -27 -7 -37 -45 -12 -44 -12 -45 -49 -39 -33 6 -40 2 -77 -35 -36
-36 -44 -40 -62 -31 -26 14 -26 24 1 17 15 -4 19 -1 17 11 -2 10 -19 20 -46
25 -38 7 -49 5 -80 -16 -21 -14 -50 -28 -66 -31 -15 -4 -34 -13 -42 -20 -7 -7
-24 -11 -38 -9 -20 4 -28 -1 -41 -26 -12 -24 -13 -36 -5 -51 9 -17 7 -22 -12
-29 -29 -11 -50 5 -28 22 28 22 13 69 -20 64 -11 -2 -22 -5 -24 -8 -5 -5 -14
-52 -15 -81 -1 -11 -9 -18 -20 -18 -29 0 -33 -36 -5 -51 29 -15 32 -59 5 -76
-16 -10 -21 -7 -36 28 -15 33 -24 40 -56 45 -21 4 -40 13 -43 20 -12 32 -57 4
-63 -39 -6 -38 -12 -47 -33 -47 -43 0 -70 -32 -86 -102 -1 -5 -2 -10 -3 -13 0
-3 -10 -1 -21 5 -14 8 -25 7 -40 -2 -29 -18 -25 -44 10 -60 34 -15 34 -31 2
-36 -32 -5 -43 -32 -30 -76 9 -28 9 -39 -1 -49 -9 -9 -17 -5 -34 17 -28 35
-57 32 -70 -7 -7 -22 -5 -32 8 -47 11 -12 18 -39 19 -74 2 -53 -5 -69 -19 -46
-3 6 -17 10 -30 10 -39 0 -43 -48 -8 -110 28 -51 28 -51 8 -68 -11 -9 -28 -38
-37 -65 l-17 -47 29 -30 c17 -17 30 -37 30 -45 0 -8 3 -15 8 -15 23 -1 48 -38
67 -97 12 -38 27 -68 34 -68 6 0 11 -3 11 -7 0 -5 0 -12 0 -18 0 -5 -6 -10
-14 -10 -18 0 -24 -17 -20 -60 1 -19 3 -45 3 -57 1 -20 6 -23 41 -23 32 0 40
-4 40 -18 0 -10 -7 -27 -15 -38 -19 -25 -19 -30 6 -52 13 -13 19 -29 17 -47
-2 -23 2 -30 27 -39 27 -10 30 -15 27 -50 -2 -24 2 -42 10 -47 7 -5 13 -19 13
-32 1 -31 19 -53 50 -61 13 -3 26 -15 30 -26 8 -24 38 -34 64 -21 32 17 34 14
27 -44 -6 -55 -6 -55 22 -55 32 0 52 16 52 41 0 30 25 28 39 -3 11 -23 11 -35
1 -56 -10 -22 -9 -28 6 -39 10 -7 33 -13 51 -13 37 0 44 -18 17 -44 -18 -19
-10 -56 12 -56 32 0 93 40 96 62 2 16 11 24 28 26 14 2 30 8 36 13 18 15 44
-1 44 -27 0 -17 -7 -25 -25 -30 -19 -5 -25 -13 -25 -35 0 -24 4 -29 25 -29 14
0 38 9 53 20 15 10 46 21 70 24 24 2 49 9 56 15 20 16 14 46 -12 68 -19 14
-22 24 -17 46 9 33 17 34 49 2 14 -14 32 -25 40 -25 11 0 13 -8 9 -33 -5 -31
-3 -34 30 -44 56 -17 82 1 82 57 0 42 1 44 35 47 48 5 120 32 121 46 3 45 8
60 27 80 12 13 22 28 22 34 0 6 27 13 61 15 50 4 65 9 80 29 10 13 23 25 28
25 6 1 15 2 20 3 16 2 19 39 5 60 -14 19 -13 21 13 27 37 9 53 22 53 45 0 22
68 88 91 89 9 0 22 -7 29 -15 17 -20 50 -16 64 8 9 15 6 22 -16 41 -35 28 -35
42 -1 51 33 8 43 21 43 57 0 20 9 30 38 45 33 18 37 24 42 68 6 61 31 82 74
60 57 -30 104 -8 86 40 -4 11 -2 28 4 37 9 14 6 21 -11 33 -17 12 -20 21 -14
38 5 12 5 34 0 49 -7 27 -7 28 19 14 26 -13 55 -20 78 -17 6 0 17 19 24 41 10
30 20 42 39 46 50 11 52 13 49 51 l-3 37 47 7 c26 4 52 10 59 14 19 12 3 74
-25 96 -13 10 -23 27 -21 37 2 9 4 20 4 23 1 4 10 9 22 12 14 4 23 -1 31 -18
18 -40 85 -38 108 4 8 16 8 27 -2 44 -6 12 -11 32 -9 45 2 16 -3 22 -18 22
-12 0 -21 6 -21 16 0 8 -7 22 -15 31 -21 20 -15 45 13 59 13 6 30 22 39 34 11
16 23 21 44 18 26 -4 30 -1 44 41 22 65 20 80 -15 93 -37 12 -35 28 7 47 17 8
34 22 36 32 4 16 -2 20 -34 25 -48 8 -66 21 -74 55 -5 20 -1 27 19 37 33 15
33 32 1 60 -32 28 -31 33 4 54 29 16 35 43 14 56 -16 11 -34 77 -27 97 5 12 1
22 -10 31 -14 10 -23 9 -47 -4 -32 -19 -36 -41 -13 -76 17 -27 4 -45 -16 -21
-17 21 -44 19 -65 -5 -23 -25 -41 -25 -55 -1 -7 14 -6 23 3 33 8 8 11 22 7 32
-6 17 -7 17 -23 2 -9 -10 -17 -22 -17 -27 0 -5 -8 -9 -17 -9 -10 0 -27 -7 -37
-15 -12 -9 -42 -15 -77 -15 -57 0 -58 0 -69 -35 -11 -34 -29 -47 -31 -22 -1 6
-2 24 -3 40 -3 24 4 32 27 28 11 -2 12 39 1 87 -4 19 0 22 30 22 19 0 38 5 41
10 3 6 17 10 30 10 36 0 38 26 4 65 l-31 35 -33 -36 -34 -35 -15 30 c-14 27
-19 29 -42 21 -14 -6 -27 -10 -28 -10 -2 0 -6 18 -10 40 -5 31 -11 40 -26 40
-10 0 -22 -6 -27 -12z m-459 -289 c6 -5 11 -18 13 -30 5 -32 -28 -20 -51 20
l-19 33 24 -7 c13 -4 28 -11 33 -16z"/>
<path d="M4036 2748 c-18 -25 -7 -53 26 -64 27 -8 51 21 42 50 -13 40 -45 47
-68 14z"/>
<path d="M4202 2174 c-31 -22 -25 -55 11 -65 38 -10 56 21 32 57 -18 29 -15
28 -43 8z"/>
<path d="M4110 1582 c0 -24 5 -31 25 -34 27 -6 27 -6 29 32 1 20 -4 26 -26 28
-25 3 -28 0 -28 -26z"/>
<path d="M470 1346 c0 -2 7 -9 15 -16 12 -10 15 -10 15 4 0 9 -7 16 -15 16 -8
0 -15 -2 -15 -4z"/>
<path d="M535 1330 c-6 -20 9 -50 25 -50 12 0 6 63 -7 67 -6 2 -14 -5 -18 -17z"/>
<path d="M4435 535 c-66 -34 -89 -96 -61 -169 47 -124 246 -85 246 48 0 100
-99 164 -185 121z m105 -20 c86 -45 68 -183 -27 -201 -48 -9 -79 2 -104 37
-68 96 29 217 131 164z"/>
<path d="M4453 493 c-16 -6 -18 -153 -3 -153 9 0 15 29 11 58 -3 23 33 9 46
-17 12 -24 43 -49 43 -34 0 4 -9 19 -19 32 -18 24 -18 25 2 41 27 22 17 70
-16 71 -12 0 -29 2 -37 3 -8 2 -21 1 -27 -1z m64 -26 c21 -13 2 -37 -28 -37
-22 0 -29 5 -29 19 0 27 29 36 57 18z"/>
</g>
</svg>
